<?xml version="1.0" encoding="UTF-8"?>
<svg xmlns="http://www.w3.org/2000/svg" width="12" height="11" viewBox="0 0 12 11" fill="none">
  <path d="M0 1.27773C0 0.907535 0.13536 0.6018 0.4056 0.360988C0.67584 0.120176 1.0272 0 1.45968 0C1.88448 0 2.22816 0.118334 2.49072 0.355463C2.76096 0.599958 2.89632 0.918585 2.89632 1.31088C2.89632 1.66635 2.76528 1.96287 2.50272 2.2C2.23248 2.4445 1.87728 2.56651 1.43712 2.56651H1.4256C1.0008 2.56651 0.65712 2.4445 0.39456 2.2C0.132 1.9555 0 1.64793 0 1.27773ZM0.15072 11V3.57765H2.72208V11H0.15072ZM4.14672 11H6.71808V6.85555C6.71808 6.59632 6.7488 6.39648 6.81072 6.25559C6.91872 6.00373 7.08288 5.79054 7.3032 5.61649C7.52304 5.44244 7.79952 5.35542 8.1312 5.35542C8.99616 5.35542 9.42864 5.91486 9.42864 7.03328V11H12V6.74458C12 5.64826 11.7298 4.8167 11.1893 4.25036C10.6488 3.68355 9.93456 3.40038 9.04656 3.40038C8.05056 3.40038 7.2744 3.81155 6.71856 4.63391V4.65601H6.70704L6.71856 4.63391V3.57765H4.14672C4.16208 3.81478 4.16976 4.55149 4.16976 5.7887C4.16976 7.02591 4.16208 8.76316 4.14672 11Z" fill="black"></path>
</svg>
