<?xml version="1.0" encoding="UTF-8"?>
<svg xmlns="http://www.w3.org/2000/svg" width="12" height="12" viewBox="0 0 12 12" fill="none">
  <path fill-rule="evenodd" clip-rule="evenodd" d="M6.00002 1.0772C6.79896 1.04715 7.59901 1.06933 8.39506 1.1436C8.78122 1.13874 9.16485 1.20642 9.52603 1.34311C10.0243 1.57531 10.4248 1.9758 10.657 2.47414C10.7937 2.83534 10.8614 3.219 10.8565 3.60517C10.8565 4.20404 10.9229 4.40356 10.9229 6.00034C10.9529 6.79932 10.9308 7.59942 10.8565 8.39551C10.8614 8.78168 10.7937 9.16533 10.657 9.52654C10.4248 10.0249 10.0243 10.4254 9.52603 10.6576C9.16485 10.7943 8.78122 10.8619 8.39506 10.8571C7.79622 10.8571 7.59672 10.9235 6.00002 10.9235C5.20108 10.9535 4.40103 10.9313 3.60498 10.8571C3.21882 10.8619 2.83519 10.7943 2.47401 10.6576C1.9757 10.4254 1.57523 10.0249 1.34304 9.52654C1.20636 9.16533 1.13868 8.78168 1.14354 8.39551C1.14354 7.79664 1.07714 7.59712 1.07714 6.00034C1.0471 5.20135 1.06928 4.40126 1.14354 3.60517C1.13868 3.219 1.20636 2.83534 1.34304 2.47414C1.45919 2.22743 1.61671 2.00243 1.80877 1.80887C1.96477 1.57618 2.202 1.41009 2.47401 1.34311C2.83519 1.20642 3.21882 1.13874 3.60498 1.1436C4.40103 1.06933 5.20108 1.04715 6.00002 1.0772ZM6.00002 0.0125702C5.17906 -0.0167471 4.35708 0.00542979 3.5389 0.0789704C3.0389 0.0778814 2.5429 0.168106 2.07531 0.345206C1.67142 0.476819 1.30584 0.70521 1.01043 1.01048C0.705216 1.30582 0.47684 1.67131 0.345188 2.0751C0.136196 2.5334 0.0446991 3.03655 0.0789662 3.53909C0.0054295 4.35731 -0.0167462 5.17934 0.0125696 6.00034C-0.016826 6.82197 0.00534979 7.64464 0.0789662 8.4635C0.0781479 8.96278 0.168364 9.45802 0.345188 9.92494C0.47684 10.3287 0.705216 10.6942 1.01043 10.9896C1.30575 11.2948 1.67122 11.5232 2.075 11.6548C2.54258 11.8319 3.03858 11.9222 3.53858 11.9211C4.35687 11.9946 5.17896 12.0168 6.00002 11.9875C6.82108 12.0168 7.64317 11.9946 8.46146 11.9211C8.96146 11.9222 9.45746 11.8319 9.92505 11.6548C10.3258 11.5168 10.6898 11.2892 10.9896 10.9895C11.2893 10.6898 11.5168 10.3257 11.6549 9.92494C11.8319 9.45732 11.9222 8.9613 11.9211 8.46127C11.9211 7.796 11.9875 7.59648 11.9875 5.9997C12.0168 5.1786 11.9946 4.35646 11.9211 3.53813C11.9222 3.03811 11.8319 2.54208 11.6549 2.07447C11.5232 1.67067 11.2948 1.30518 10.9896 1.00984C10.694 0.704762 10.3284 0.476589 9.92441 0.345206C9.45752 0.168373 8.9623 0.078152 8.46305 0.0789704C7.64424 0.00535008 6.82161 -0.0168269 6.00002 0.0125702ZM6.00002 2.9399C5.5963 2.93324 5.19537 3.00785 4.82107 3.15929C4.44677 3.31074 4.10675 3.53592 3.82124 3.82145C3.53573 4.10697 3.31056 4.44701 3.15913 4.82133C3.00769 5.19564 2.93308 5.5966 2.93974 6.00034C2.93974 6.60564 3.11922 7.19734 3.45549 7.70063C3.79176 8.20392 4.26971 8.59618 4.8289 8.82782C5.38809 9.05946 6.00342 9.12006 6.59705 9.00198C7.19069 8.88389 7.73598 8.59241 8.16397 8.1644C8.59195 7.73639 8.88342 7.19107 9.0015 6.5974C9.11958 6.00373 9.05898 5.38838 8.82735 4.82916C8.59573 4.26993 8.20348 3.79196 7.70022 3.45567C7.19696 3.11939 6.60529 2.9399 6.00002 2.9399ZM6.00002 7.99615C5.73661 8.00098 5.47493 7.95266 5.23062 7.85407C4.98631 7.75548 4.76438 7.60864 4.57809 7.42234C4.3918 7.23605 4.24498 7.0141 4.14639 6.76978C4.04781 6.52545 3.99948 6.26376 4.00431 6.00034C3.99948 5.73692 4.04781 5.47522 4.14639 5.2309C4.24498 4.98657 4.3918 4.76463 4.57809 4.57833C4.76438 4.39203 4.98631 4.2452 5.23062 4.14661C5.47493 4.04802 5.73661 3.99969 6.00002 4.00452C6.26343 3.99969 6.52511 4.04802 6.76942 4.14661C7.01373 4.2452 7.23566 4.39203 7.42195 4.57833C7.60824 4.76463 7.75506 4.98657 7.85365 5.2309C7.95224 5.47522 8.00056 5.73692 7.99573 6.00034C8.00056 6.26376 7.95224 6.52545 7.85365 6.76978C7.75506 7.0141 7.60824 7.23605 7.42195 7.42234C7.23566 7.60864 7.01373 7.75548 6.76942 7.85407C6.52511 7.95266 6.26343 8.00098 6.00002 7.99615ZM9.19373 2.0751C9.04922 2.0751 8.90795 2.11796 8.78779 2.19825C8.66763 2.27855 8.57397 2.39267 8.51867 2.52619C8.46337 2.65971 8.4489 2.80663 8.47709 2.94838C8.50528 3.09013 8.57487 3.22033 8.67706 3.32252C8.77925 3.42471 8.90944 3.49431 9.05118 3.5225C9.19292 3.5507 9.33984 3.53623 9.47335 3.48092C9.60686 3.42561 9.72098 3.33196 9.80127 3.21179C9.88156 3.09162 9.92441 2.95035 9.92441 2.80582C9.92243 2.61264 9.84481 2.42793 9.70821 2.29132C9.5716 2.15471 9.3869 2.07709 9.19373 2.0751Z" fill="black"></path>
</svg>
