<?xml version="1.0" encoding="UTF-8"?>
<svg xmlns="http://www.w3.org/2000/svg" width="99" height="43" viewBox="0 0 99 43" fill="none">
  <path d="M82.2533 20.2789C81.5507 20.797 80.5892 21.019 79.3689 21.019C77.409 21.019 74.8944 20.5379 71.8251 19.6128C69.4954 18.9467 67.8313 18.6507 66.9438 18.6507C65.5016 18.6507 64.0594 19.2428 62.6172 20.4639C61.175 21.6851 59.8438 23.0913 58.7344 24.5715C58.8453 24.7195 58.9932 24.7935 58.9932 24.7935C59.2151 24.6085 60.9531 22.9433 61.5448 22.6102C62.1735 22.2402 62.987 22.0551 64.0594 22.0551C65.6126 22.0551 67.1287 22.2772 68.5709 22.6472C69.9761 23.0543 70.8267 23.2763 71.0855 23.3503C73.7111 24.1274 75.708 24.5345 77.0762 24.5345C78.2595 24.5345 79.4059 24.1274 80.4413 23.3133C81.5507 22.4622 82.9559 20.871 84.657 18.5027C84.657 18.5027 84.4351 18.3176 84.3612 18.3176C83.6216 19.2058 82.919 19.8348 82.2533 20.2789Z" fill="white"></path>
  <path d="M26.8069 34.822C29.6174 34.822 32.021 34.1929 33.907 32.9718C35.7929 31.7506 37.2351 30.1224 38.1226 28.1981C39.0471 26.2368 39.4909 24.1645 39.4909 21.9812C39.4909 19.2058 38.7883 16.7635 37.42 14.7282C36.0518 12.6559 34.2398 11.0647 32.058 9.95454C29.8762 8.84438 27.5835 8.28931 25.2908 8.28931C23.4048 8.28931 21.6298 8.65936 20.0397 9.43647C18.5235 10.1766 17.7469 11.0647 17.7469 12.1378C17.7469 12.6559 17.9318 13.1 18.3016 13.47C18.6714 13.8401 19.1891 14.0251 19.8548 14.0251C20.9642 14.0251 21.8517 13.359 22.5913 11.9528C23.1829 11.0277 23.8486 10.3246 24.5142 9.88053C25.2168 9.39946 26.2152 9.17743 27.4725 9.17743C30.0241 9.17743 32.021 10.1766 33.4262 12.1378C34.8315 14.0991 35.5711 16.7265 35.5711 19.9829C35.5711 23.7205 34.6096 26.8289 32.7606 29.2712C30.8377 31.7136 27.9903 32.9347 24.2184 32.9347C21.5189 32.9347 19.2261 32.1946 17.3772 30.7514C17.3402 30.7514 17.2662 30.7514 17.1923 30.8625C17.1553 30.8995 17.1553 30.9365 17.1553 30.9365C18.6714 32.2317 20.2246 33.2308 21.7407 33.8599C23.2939 34.526 24.9949 34.822 26.8069 34.822Z" fill="white"></path>
  <path d="M9.54071 43.0001C9.54071 42.9631 9.57768 42.9261 9.57768 42.8151C9.57768 42.704 9.57768 42.667 9.54071 42.63C7.83965 42.63 6.54537 42.482 5.69484 42.223C4.80733 41.9269 4.21566 41.4459 3.91982 40.7428C3.62399 40.0767 3.47607 39.0775 3.47607 37.7083V5.40282C3.47607 4.03363 3.62399 3.03449 3.91982 2.3684C4.21566 1.6653 4.84431 1.18423 5.69484 0.888193C6.50839 0.629157 7.80267 0.481136 9.54071 0.481136C9.54071 0.444131 9.57768 0.407125 9.57768 0.29611C9.57768 0.185094 9.57768 0.148089 9.54071 0.111084H0.369795C0.110938 0.111084 0 0.259105 0 0.555146V42.482C0 42.8521 0.110938 43.0001 0.369795 43.0001H9.54071Z" fill="white"></path>
  <path d="M98.3824 42.3709V0.444062C98.3824 0.148021 98.2345 0 98.0126 0H88.8417C88.8417 0.0370052 88.8047 0.0740103 88.8047 0.185026C88.8047 0.296041 88.8047 0.333047 88.8417 0.370052C90.5427 0.370052 91.837 0.518072 92.6875 0.777109C93.575 1.07315 94.1667 1.55422 94.4625 2.25732C94.7584 2.92341 94.9063 3.92255 94.9063 5.29174V37.5973C94.9063 38.9664 94.7584 39.9656 94.4625 40.6317C94.1667 41.3348 93.5381 41.8158 92.6875 42.1119C91.874 42.3709 90.5797 42.5189 88.8417 42.5189C88.8417 42.556 88.8047 42.593 88.8047 42.704C88.8047 42.815 88.8047 42.852 88.8417 42.889H98.0126C98.2714 42.889 98.3824 42.741 98.3824 42.3709Z" fill="white"></path>
  <path d="M50.0074 24.1273C51.4496 24.1273 52.6329 22.9431 52.6329 21.4999C52.6329 20.0567 51.4496 18.8726 50.0074 18.8726C48.5652 18.8726 47.3818 20.0567 47.3818 21.4999C47.3818 22.9431 48.5652 24.1273 50.0074 24.1273Z" fill="white"></path>
</svg>
