<?xml version="1.0" encoding="UTF-8"?>
<svg xmlns="http://www.w3.org/2000/svg" width="316" height="48" viewBox="0 0 316 48" fill="none">
  <path d="M239.483 38.9026L243.134 38.8255L246.708 38.9026C247.274 38.954 248.045 38.9797 249.048 38.9797C249.048 38.954 249.074 38.9026 249.074 38.7998C249.074 38.6969 249.074 38.6455 249.048 38.6198C247.84 38.6198 246.965 38.4912 246.348 38.2341C245.706 37.977 245.294 37.4884 245.063 36.8199C244.857 36.1771 244.754 35.2 244.754 33.8373V20.8784C244.754 18.3071 244.111 16.3273 242.826 15.016C241.54 13.7047 239.689 13.0361 237.298 13.0361C235.575 13.0361 233.904 13.499 232.284 14.3989C230.664 15.2988 228.993 16.7387 227.347 18.6414L226.961 19.0785V18.4871C226.961 16.9444 226.756 15.6588 226.319 14.6817C225.779 13.4218 225.393 13.2933 225.264 13.2933C225.084 13.2933 225.007 13.319 224.956 13.3447L217.319 16.9701C217.268 16.9958 217.242 17.0215 217.268 17.1244C217.319 17.2786 217.371 17.2786 217.422 17.2786H217.525C219.222 16.6101 220.405 16.2759 221.125 16.2759C222.05 16.2759 222.719 16.6358 223.105 17.3815C223.49 18.0757 223.67 19.1813 223.67 20.7241V33.8116C223.67 35.1743 223.567 36.1514 223.362 36.7942C223.156 37.4627 222.719 37.9513 222.076 38.2084C221.485 38.4655 220.61 38.5941 219.376 38.5941C219.376 38.6198 219.351 38.6712 219.351 38.774C219.351 38.8769 219.351 38.9283 219.376 38.954C220.353 38.954 221.15 38.9283 221.69 38.8769L225.342 38.7998L228.916 38.8769C229.481 38.9283 230.253 38.954 231.255 38.954C231.255 38.9283 231.281 38.8769 231.281 38.774C231.281 38.6712 231.281 38.6198 231.255 38.5941C230.047 38.5941 229.173 38.4655 228.556 38.2084C227.913 37.9513 227.501 37.4627 227.27 36.7942C227.064 36.1514 226.961 35.1486 226.961 33.8116V19.5413L227.013 19.4899C228.17 18.2043 229.481 17.1758 230.87 16.4301C232.284 15.6845 233.698 15.3245 235.112 15.3245C237.246 15.3245 238.84 15.9673 239.869 17.2529C240.897 18.5128 241.412 20.4927 241.412 23.141V33.8373C241.412 35.2 241.309 36.1771 241.103 36.8199C240.897 37.4884 240.46 37.977 239.817 38.2341C239.226 38.4912 238.352 38.6198 237.118 38.6198C237.118 38.6455 237.092 38.6969 237.092 38.7998C237.092 38.9026 237.092 38.954 237.118 38.9797C238.146 38.954 238.943 38.9283 239.483 38.9026Z" fill="black"></path>
  <path d="M295.304 20.2869L282.5 20.5698L282.577 20.2869C283.065 18.3585 283.94 16.8415 285.199 15.7873C286.434 14.7331 288.028 14.1931 289.879 14.1931C291.525 14.1931 292.862 14.7074 293.839 15.7359C294.816 16.7644 295.33 18.23 295.33 20.0812V20.2869H295.304ZM297.541 14.9902C296.256 13.8589 294.456 13.2932 292.142 13.2932C289.545 13.2932 287.154 13.9103 285.045 15.1445C282.937 16.3787 281.24 18.0757 280.006 20.1841C278.771 22.2925 278.154 24.6837 278.154 27.2806C278.154 29.4919 278.617 31.5489 279.543 33.4259C280.468 35.3029 281.883 36.8456 283.734 38.0026C285.585 39.1597 287.822 39.7511 290.368 39.7511C293.736 39.7511 296.924 38.4912 299.855 35.9971C299.881 35.9714 299.881 35.9199 299.804 35.8428C299.727 35.74 299.675 35.7142 299.624 35.7142C297.593 37.1541 295.279 37.8998 292.733 37.8998C289.416 37.8998 286.768 36.6656 284.891 34.2229C283.014 31.806 282.063 28.592 282.063 24.7351C282.063 23.6295 282.165 22.4468 282.397 21.264L282.423 21.084L298.853 20.9554C299.135 20.9554 299.238 20.8269 299.29 20.724C299.367 20.5698 299.444 20.2612 299.444 19.6698C299.444 17.6643 298.801 16.0958 297.541 14.9902Z" fill="black"></path>
  <path d="M204.592 2.08257C204.129 2.41683 203.487 2.57111 202.689 2.57111C201.404 2.57111 199.707 2.26256 197.676 1.64547C196.107 1.20836 195.027 1.00266 194.436 1.00266C193.485 1.00266 192.507 1.41406 191.556 2.21114C190.579 3.03393 189.731 3.95956 188.985 4.96234C189.036 5.06519 189.088 5.0909 189.139 5.0909H189.191C189.345 4.96234 189.551 4.75664 189.808 4.49952C190.116 4.16526 190.45 3.90814 190.836 3.67673C191.248 3.44532 191.813 3.31676 192.507 3.31676C193.536 3.31676 194.539 3.44532 195.516 3.72815C196.467 3.98528 197.033 4.13955 197.187 4.19097C198.935 4.70522 200.273 4.98805 201.172 4.98805C201.97 4.98805 202.715 4.70522 203.409 4.16526C204.129 3.59959 205.081 2.54539 206.212 0.97695C206.212 0.97695 206.212 0.97695 206.186 0.951237C206.109 0.874101 206.058 0.848389 206.006 0.848389C205.518 1.36263 205.029 1.77403 204.592 2.08257Z" fill="black"></path>
  <path d="M259.848 38.5425C261.005 39.3396 262.496 39.751 264.296 39.751C265.658 39.751 267.021 39.4938 268.281 38.9796C269.567 38.4654 271.007 37.5654 272.626 36.3055C272.652 36.2798 272.678 36.2541 272.626 36.1255C272.575 35.997 272.524 35.9713 272.472 35.9713L272.421 35.997C270.904 37.2569 269.078 37.874 267.021 37.874C265.298 37.874 263.936 37.4112 263.01 36.4855C262.059 35.5599 261.596 34.1457 261.596 32.2944V15.6329H261.827C265.35 15.7101 268.384 16.07 270.801 16.6871C270.801 16.6871 270.904 16.6614 271.032 16.3272C271.187 15.9929 271.238 15.6329 271.238 15.3244C271.238 14.9644 271.187 14.6044 271.084 14.2959C271.007 14.0902 270.955 13.9873 270.929 13.9616C267.047 14.3473 263.987 14.5787 261.802 14.6044H261.57V9.53914C261.545 9.53914 261.467 9.51343 261.313 9.51343C261.107 9.51343 261.03 9.53914 261.005 9.53914C260.825 11.0819 260.156 12.3418 259.025 13.2674C257.893 14.193 256.402 14.6816 254.602 14.733C254.576 14.733 254.551 14.7844 254.551 14.9387C254.551 15.1187 254.577 15.1444 254.577 15.1444H254.602C255.682 15.1444 256.453 15.2215 256.916 15.3758C257.431 15.5558 257.765 15.9158 257.945 16.4814C258.099 16.9957 258.176 17.8185 258.176 19.0012V34.5314C258.176 36.4084 258.742 37.7454 259.848 38.5425Z" fill="black"></path>
  <path d="M190.321 17.4843C191.967 15.1188 194.153 13.9103 196.801 13.9103C198.601 13.9103 200.246 14.4503 201.686 15.5302C203.152 16.6358 203.897 18.05 203.897 19.747V33.3231L203.846 33.3745C202.509 34.7115 201.146 35.7914 199.809 36.6142C198.447 37.437 196.981 37.8741 195.49 37.8741C193.176 37.8741 191.299 36.8199 189.91 34.7372C188.547 32.6803 187.853 29.9548 187.853 26.6122C187.853 22.8839 188.676 19.8242 190.321 17.4843ZM183.945 28.5406C183.945 32.0374 184.845 34.7887 186.619 36.7171C188.393 38.6455 190.63 39.6225 193.227 39.6225C195.155 39.6225 196.955 39.134 198.601 38.1312C200.246 37.1285 201.918 35.7914 203.512 34.1458L203.872 33.7859L203.897 34.3001C203.949 35.8428 204.155 37.1542 204.515 38.1569C204.977 39.4168 205.337 39.5711 205.466 39.5711C205.569 39.5711 205.646 39.5454 205.697 39.5197L213.411 35.7914C213.437 35.7914 213.437 35.7657 213.411 35.7143C213.36 35.56 213.308 35.56 213.257 35.56H213.154C211.56 36.1771 210.377 36.4857 209.606 36.4857C208.68 36.4857 208.011 36.1257 207.626 35.4057C207.24 34.7372 207.06 33.6573 207.06 32.0889V13.2933C207.034 13.2933 207.009 13.2675 206.932 13.2418C206.88 13.2161 206.854 13.2161 206.854 13.2161C206.392 13.9361 205.749 14.5274 204.952 14.9903L204.823 15.0674L204.72 14.9903C202.946 13.7046 200.838 13.0361 198.447 13.0361C196.21 13.0361 193.947 13.6789 191.71 14.9131C189.473 16.173 187.596 17.9986 186.13 20.3384C184.69 22.6525 183.945 25.4294 183.945 28.5406Z" fill="black"></path>
  <path d="M176.18 38.9026C176.746 38.954 177.517 38.9797 178.52 38.9797C178.52 38.954 178.546 38.9026 178.546 38.7998C178.546 38.6969 178.546 38.6455 178.52 38.6198C177.311 38.6198 176.437 38.4912 175.82 38.2341C175.177 37.977 174.766 37.4884 174.534 36.8199C174.329 36.1771 174.226 35.2 174.226 33.8373V20.8784C174.226 18.3071 173.583 16.3273 172.298 15.016C171.012 13.7047 169.161 13.0361 166.769 13.0361C165.047 13.0361 163.375 13.499 161.756 14.3989C160.136 15.2988 158.464 16.7387 156.819 18.6414L156.433 19.0785V18.4871C156.433 16.9444 156.227 15.6588 155.79 14.6817C155.25 13.4218 154.865 13.2933 154.736 13.2933C154.556 13.2933 154.479 13.319 154.428 13.3447L146.791 16.9701C146.74 16.9958 146.714 17.0215 146.74 17.1244C146.791 17.2786 146.842 17.2786 146.894 17.2786H146.997C148.694 16.6101 149.876 16.2759 150.596 16.2759C151.522 16.2759 152.191 16.6358 152.576 17.3815C152.962 18.0757 153.142 19.1813 153.142 20.7241V33.8116C153.142 35.1743 153.039 36.1514 152.833 36.7942C152.628 37.4627 152.191 37.9513 151.548 38.2084C150.956 38.4655 150.056 38.5941 148.848 38.5941C148.848 38.6198 148.822 38.6712 148.822 38.774C148.822 38.8769 148.822 38.9283 148.848 38.954C149.825 38.954 150.622 38.9283 151.162 38.8769L154.813 38.7998L158.387 38.8769C158.953 38.9283 159.724 38.954 160.727 38.954C160.727 38.9283 160.753 38.8769 160.753 38.774C160.753 38.6712 160.753 38.6198 160.727 38.5941C159.519 38.5941 158.644 38.4655 158.027 38.2084C157.384 37.9513 156.973 37.4627 156.742 36.7942C156.536 36.1514 156.433 35.1743 156.433 33.8116V19.5413L156.485 19.4899C157.642 18.2043 158.953 17.1758 160.341 16.4301C161.756 15.6845 163.17 15.3245 164.584 15.3245C166.718 15.3245 168.312 15.9673 169.341 17.2529C170.369 18.5128 170.883 20.4927 170.883 23.141V33.8373C170.883 35.2 170.78 36.1771 170.575 36.8199C170.369 37.4884 169.932 37.977 169.289 38.2341C168.698 38.4912 167.798 38.6198 166.589 38.6198C166.589 38.6455 166.564 38.6969 166.564 38.7998C166.564 38.9026 166.564 38.954 166.589 38.9797C167.566 38.9797 168.364 38.954 168.903 38.9026L172.555 38.8255L176.18 38.9026Z" fill="black"></path>
  <path d="M83.3588 37.7455C85.2101 39.0311 87.2928 39.6996 89.5812 39.6996C92.3838 39.6996 94.6207 38.9282 96.2406 37.4369C97.8605 35.9456 98.6833 34.0944 98.6833 31.9088C98.6833 30.6489 98.3747 29.5433 97.7833 28.6691C97.192 27.7692 96.472 27.0235 95.6235 26.4835C94.775 25.9179 93.5665 25.2236 92.0495 24.4523C90.0697 23.4238 88.527 22.4467 87.4985 21.5468C86.4443 20.5955 85.9043 19.3098 85.9043 17.7157C85.9043 16.4558 86.2386 15.5044 86.9328 14.8873C87.6013 14.2445 88.5527 13.936 89.7611 13.936C90.8411 13.936 91.9467 14.1931 93.0266 14.6816C94.1065 15.1702 95.0321 15.8644 95.7521 16.6872C96.472 17.51 96.832 18.4099 96.8577 19.3356C96.9348 19.3356 97.1405 19.3356 97.2177 19.3356L97.2691 16.6615C97.3205 16.173 97.3462 15.4787 97.3462 14.6302C97.3462 14.5017 97.3205 14.3988 97.2691 14.3217C97.2691 14.296 97.192 14.2188 96.8834 14.116C95.4435 13.4732 93.8494 13.1389 92.1267 13.1389C89.7611 13.1389 87.6784 13.756 85.93 14.9902C84.2073 16.1987 83.3331 17.9728 83.3331 20.2612C83.3331 21.5725 83.6159 22.7039 84.1816 23.5781C84.7473 24.478 85.4672 25.1979 86.29 25.7636C87.1385 26.3293 88.2955 26.9721 89.7354 27.6663C91.0982 28.3605 92.2038 28.9776 93.0009 29.4919C93.8237 30.0061 94.5179 30.7261 95.0836 31.6003C95.6492 32.5002 95.9321 33.5801 95.9321 34.8657C95.9321 36.2028 95.5207 37.2312 94.6979 37.8998C93.9008 38.5683 92.7695 38.9025 91.3553 38.9025C89.5554 38.9025 87.9356 38.3112 86.5471 37.1284C85.1844 35.9713 84.053 34.2486 83.2045 32.0117C83.2045 32.0117 83.1788 31.986 83.076 31.986C83.0503 31.986 83.0245 31.986 82.9988 31.986C82.8446 32.0117 82.8188 32.0374 82.8188 32.0374L82.9731 37.1541C83.076 37.4112 83.1531 37.6169 83.3588 37.7455Z" fill="black"></path>
  <path d="M135.529 0C134.655 0 133.986 0.23141 133.523 0.668517C133.061 1.10562 132.829 1.72272 132.829 2.57122C132.829 3.39401 133.061 4.0111 133.523 4.47392C133.986 4.91103 134.655 5.14244 135.529 5.14244C136.352 5.14244 136.969 4.93674 137.432 4.47392C137.869 4.03681 138.1 3.39401 138.1 2.57122C138.1 1.74843 137.869 1.10562 137.432 0.668517C136.994 0.23141 136.352 0 135.529 0Z" fill="black"></path>
  <path d="M106.628 37.7455C108.48 39.0311 110.562 39.6996 112.851 39.6996C115.653 39.6996 117.89 38.9282 119.51 37.4369C121.13 35.9456 121.953 34.0944 121.953 31.9088C121.953 30.6489 121.644 29.5433 121.053 28.6691C120.461 27.7692 119.742 27.0235 118.893 26.4835C118.045 25.9179 116.836 25.2236 115.319 24.4523C113.339 23.4238 111.796 22.4467 110.768 21.5468C109.714 20.5955 109.174 19.3098 109.174 17.7157C109.174 16.4558 109.508 15.5044 110.202 14.8873C110.871 14.2445 111.822 13.936 113.031 13.936C114.111 13.936 115.216 14.1931 116.296 14.6816C117.376 15.1702 118.302 15.8644 119.022 16.6872C119.742 17.51 120.102 18.4099 120.127 19.3356C120.204 19.3356 120.41 19.3356 120.487 19.3356L120.539 16.6615C120.59 16.173 120.616 15.4787 120.616 14.6302C120.616 14.5017 120.59 14.3988 120.539 14.3217C120.539 14.296 120.461 14.2188 120.153 14.116C118.713 13.4732 117.119 13.1389 115.396 13.1389C113.031 13.1389 110.948 13.756 109.2 14.9902C107.477 16.1987 106.603 17.9728 106.603 20.2612C106.603 21.5725 106.885 22.7039 107.451 23.5781C108.017 24.478 108.737 25.1979 109.56 25.7636C110.408 26.3293 111.565 26.9721 113.005 27.6663C114.368 28.3862 115.473 28.9776 116.27 29.4919C117.093 30.0061 117.787 30.7261 118.353 31.6003C118.919 32.5002 119.202 33.5801 119.202 34.8657C119.202 36.2028 118.79 37.2312 117.967 37.8998C117.17 38.5683 116.039 38.9025 114.625 38.9025C112.825 38.9025 111.205 38.3112 109.817 37.1284C108.454 35.9713 107.323 34.2486 106.474 32.0117C106.474 32.0117 106.448 31.986 106.346 31.986C106.32 31.986 106.294 31.986 106.268 31.986C106.114 32.0117 106.088 32.0374 106.088 32.0374L106.243 37.1541C106.32 37.4112 106.423 37.6169 106.628 37.7455Z" fill="black"></path>
  <path d="M139.334 38.2341C138.717 37.977 138.254 37.4885 138.023 36.8199C137.791 36.1771 137.689 35.2001 137.689 33.8373V21.3926C137.689 19.4128 137.714 17.6644 137.766 16.2245C137.817 14.7332 137.843 13.8847 137.843 13.5761C137.843 13.5504 137.843 13.4733 137.714 13.3704C137.611 13.2933 137.56 13.2676 137.534 13.2676L137.303 13.319L128.741 17.2787C128.741 17.2787 128.741 17.3558 128.792 17.4587C128.869 17.6644 128.946 17.6644 128.998 17.6644H129.024C131.518 16.3788 133.215 16.4045 133.935 17.9215C134.269 18.6671 134.449 19.8242 134.449 21.4441V33.8116C134.449 35.0972 134.346 36.1 134.115 36.7685C133.883 37.4628 133.42 37.9513 132.778 38.2084C132.16 38.4655 131.286 38.5941 130.103 38.5941C130.103 38.6198 130.103 38.6969 130.103 38.7741C130.103 38.8512 130.103 38.9283 130.103 38.9541C131.106 38.9541 131.929 38.9283 132.495 38.8769L136.069 38.7998L139.643 38.8769C140.26 38.9283 141.057 38.9541 142.06 38.9541C142.06 38.9283 142.085 38.8769 142.085 38.7741C142.085 38.6712 142.085 38.6198 142.06 38.5941C140.825 38.5941 139.951 38.4655 139.334 38.2341Z" fill="black"></path>
  <path d="M9.51351 47.5676C9.51351 47.5419 9.53922 47.4904 9.53922 47.3876C9.53922 47.2847 9.53922 47.2333 9.51351 47.2076C7.7908 47.2076 6.50519 47.079 5.68239 46.7962C4.80818 46.5134 4.2168 46.0248 3.90825 45.3306C3.59971 44.6621 3.47115 43.6593 3.47115 42.2966V10.0535C3.47115 8.69072 3.62542 7.68795 3.90825 7.01943C4.2168 6.3252 4.80818 5.83667 5.68239 5.55384C6.50519 5.29671 7.7908 5.14244 9.51351 5.14244C9.51351 5.11673 9.53922 5.0653 9.53922 4.96246C9.53922 4.85961 9.53922 4.80818 9.51351 4.78247H0.359971C0.102849 4.78247 0.0257122 4.80818 0.0257122 4.83389C0.0257122 4.83389 0 4.93674 0 5.24529V47.0533C0 47.439 0.0514244 47.5161 0.0514244 47.5161C0.0514244 47.5161 0.128561 47.5676 0.385683 47.5676H9.51351Z" fill="black"></path>
  <path d="M315.848 47.5161C315.848 47.5161 315.9 47.4389 315.9 47.0532V5.24521C315.9 4.93667 315.874 4.85953 315.848 4.83382C315.848 4.83382 315.771 4.80811 315.514 4.80811H306.361C306.361 4.83382 306.335 4.88524 306.335 4.98809C306.335 5.09094 306.335 5.14236 306.361 5.16808C308.083 5.16808 309.369 5.29664 310.192 5.57947C311.066 5.86231 311.657 6.35084 311.966 7.04507C312.274 7.71358 312.403 8.71636 312.403 10.0791V42.3222C312.403 43.6849 312.249 44.6877 311.966 45.3562C311.657 46.0505 311.066 46.539 310.192 46.8218C309.369 47.079 308.083 47.2332 306.361 47.2332C306.361 47.2589 306.335 47.3104 306.335 47.4132C306.335 47.5161 306.335 47.5675 306.361 47.5932H315.514C315.797 47.5675 315.848 47.5161 315.848 47.5161Z" fill="black"></path>
  <path d="M30.7003 27.7435C29.1833 27.7435 27.872 27.6664 26.7664 27.4864L26.5864 27.4607V18.3072C26.5864 16.9187 26.6892 16.1473 26.9978 15.4017C27.2806 14.7074 27.7692 14.2446 28.412 14.0132C29.0291 13.8075 29.929 13.7047 31.1632 13.7047C36.5113 13.7047 39.2625 14.6817 39.4425 20.0042C39.5453 23.0125 38.8254 24.2724 37.3855 25.7123C36.0485 27.0493 33.7858 27.7435 30.7003 27.7435ZM37.4884 27.6664C41.1138 26.6636 43.5307 23.9638 43.5307 20.9041C43.5307 18.4871 42.6822 16.8158 40.7024 15.3245C38.7997 13.9104 36.0742 13.1904 32.5773 13.1904C31.446 13.1904 30.1604 13.2676 28.7719 13.3961C28.232 13.4476 27.6149 13.4733 26.9207 13.5247C26.2264 13.5761 25.4551 13.6018 24.658 13.6018C23.5009 13.6018 21.9839 13.5504 20.1583 13.4733L16.9186 13.3704C16.9186 13.3961 16.8929 13.4476 16.8929 13.5504C16.8929 13.6532 16.8929 13.7047 16.9186 13.7304C18.5899 13.7304 19.8241 13.8589 20.6212 14.1161C21.444 14.3732 22.0353 14.836 22.3439 15.5302C22.6524 16.173 22.8067 17.1758 22.8067 18.5386V33.863C22.8067 35.2001 22.6524 36.2286 22.3182 36.8714C21.9839 37.5399 21.3925 38.0027 20.544 38.2598C19.747 38.4912 18.5128 38.6198 16.8672 38.6455C16.8672 38.6712 16.8672 38.7484 16.8672 38.8255C16.8672 38.9026 16.8672 38.9798 16.8672 39.0055C18.2814 39.0055 19.3613 38.9798 20.1326 38.9283L24.6323 38.8512L29.209 38.9283C29.9804 38.9798 31.0603 39.0055 32.3974 39.0055C32.3974 38.9798 32.4231 38.9283 32.4231 38.8255C32.4231 38.7226 32.4231 38.6712 32.3974 38.6455C30.7003 38.6455 29.4919 38.5427 28.6948 38.3112C27.872 38.0798 27.2806 37.617 26.9978 36.9228C26.715 36.28 26.5864 35.2772 26.5864 33.863V28.7206L26.8178 28.7463C27.9491 28.8234 28.9519 28.8749 29.7747 28.8749C31.626 28.8749 34.2229 28.6692 34.2486 28.6692H34.3515L34.4286 28.7463C36.1256 30.8547 37.9255 33.0145 39.5196 34.8144C41.6537 37.257 43.3507 39.0055 43.7107 39.0312H50.4987C50.4987 39.0055 50.4987 38.9283 50.4987 38.8512C50.4987 38.7741 50.4987 38.6969 50.4987 38.6712C49.7274 38.6198 48.1846 38.3627 46.1534 36.5628C42.9908 33.7345 39.6739 30.1862 37.4884 27.6664Z" fill="black"></path>
  <path d="M64.2547 39.6739C67.0573 39.6739 69.4486 39.0311 71.3513 37.7969C73.254 36.5628 74.6682 34.9172 75.5681 32.963C76.468 30.9832 76.9308 28.8748 76.9308 26.6893C76.9308 23.8866 76.2366 21.4183 74.8481 19.3356C73.4597 17.2529 71.6598 15.633 69.4743 14.5017C67.2887 13.3704 65.0261 12.8047 62.7377 12.8047C60.835 12.8047 59.0866 13.1904 57.5181 13.9617C56.0011 14.7074 55.2297 15.6073 55.2297 16.6872C55.2297 17.2015 55.4097 17.6643 55.7954 18.05C56.1811 18.4357 56.6696 18.6156 57.3381 18.6156C58.4438 18.6156 59.3437 17.9214 60.0636 16.533C60.655 15.6073 61.2978 14.8874 61.992 14.4503C62.6863 13.9874 63.689 13.7303 64.9489 13.7303C67.4687 13.7303 69.4743 14.7331 70.9142 16.7387C72.3283 18.7185 73.0483 21.3926 73.0483 24.6837C73.0483 28.4634 72.0969 31.626 70.2199 34.0687C68.343 36.537 65.4632 37.7712 61.7092 37.7712C59.0094 37.7712 56.721 37.0256 54.8955 35.56C54.8698 35.56 54.7926 35.5857 54.7155 35.6885C54.6898 35.74 54.6641 35.7657 54.6641 35.7657C56.1554 37.1027 57.7238 38.1055 59.2408 38.7483C60.7579 39.3654 62.4549 39.6739 64.2547 39.6739Z" fill="black"></path>
</svg>
