<svg xmlns="http://www.w3.org/2000/svg" fill="none" viewBox="0 0 844 207">
  <defs/>
  <path fill="#000001" stroke="#000" stroke-width=".5" d="M1000.92 206.719h.25v-1.29H.908v1.29H1000.92zm0-51.169h.25v-1.291H.908v1.291H1000.92zm0-51.17h.25v-1.291H.908v1.291H1000.92zM.998 47.338l.075.252.248-.088C84.815 17.78 174.866 11.535 261.678 29.4l147.633 30.449c68.459 14.16 137.55 21.2 206.8 21.2 57.076 0 114.151-4.825 171.068-14.397l-.041-.247.041.247L1001.04 30.43l.26-.043-.05-.253-.16-.79-.05-.239-.24.04L786.938 65.29c-125.631 21.27-252.685 18.976-377.447-6.72l-147.554-30.45h0C174.877 10.236 84.655 16.488.917 46.24l-.225.08.069.228.237.791zM1000.92 2.041h.25V.75H.908v1.29H1000.92z"/>
</svg>